<svg xmlns="http://www.w3.org/2000/svg" xmlns:svg="http://www.w3.org/2000/svg" xmlns:xlink="http://www.w3.org/1999/xlink" id="svg2" width="602.944" height="520.533" version="1.1" viewBox="0 0 565.26 488"><defs id="defs4"><linearGradient id="linearGradient3755"><stop id="stop3779" offset="0" style="stop-color:#2b2b2b"/><stop id="stop3771" offset="1" style="stop-color:#666"/></linearGradient><radialGradient id="radialGradient3761" cx="376.18" cy="991.04" r="320.25" gradientTransform="matrix(1,0,0,0.26677,0,605.78)" gradientUnits="userSpaceOnUse"><stop id="stop3775" offset="0" style="stop-color:#ddd"/><stop id="stop3777" offset="1" style="stop-color:#b2b2b2"/></radialGradient><radialGradient id="radialGradient3769" cx="388.75" cy="1138.2" r="320.25" gradientTransform="matrix(1,0,0,0.26677,0,605.78)" gradientUnits="userSpaceOnUse" xlink:href="#linearGradient3755"/><filter id="filter3885" width="1.147" height="1.555" x="-.074" y="-.278" style="color-interpolation-filters:sRGB"><feGaussianBlur id="feGaussianBlur3887" stdDeviation="19.62"/></filter><filter id="filter5436" width="1.716" height="2.455" x="-.358" y="-.727" style="color-interpolation-filters:sRGB"><feGaussianBlur id="feGaussianBlur5438" stdDeviation="23.325"/></filter><filter id="filter5530" width="1.54" height="1.263" x="-.27" y="-.132" style="color-interpolation-filters:sRGB"><feGaussianBlur id="feGaussianBlur5532" stdDeviation="11.477"/></filter><linearGradient id="linearGradient5547" x1="598.78" x2="672.62" y1="374.07" y2="277.45" gradientTransform="matrix(0.94352,-0.27152,-0.030872,0.82285,-65.328,184.78)" gradientUnits="userSpaceOnUse"><stop id="stop5269" offset="0" style="stop-color:#bdbdbd"/><stop id="stop5271" offset="1" style="stop-color:#ececec"/></linearGradient><radialGradient id="radialGradient5549" cx="280" cy="139.51" r="100" gradientTransform="matrix(2,0,0,1.4,-280,63.055)" gradientUnits="userSpaceOnUse"><stop id="stop3793" offset="0" style="stop-color:#ececec"/><stop id="stop3795" offset="1" style="stop-color:#bdbdbd"/></radialGradient><radialGradient id="radialGradient5551" cx="280.77" cy="46.181" r="190.5" gradientTransform="matrix(1.9342,1.2979e-6,-6.6157e-8,0.098589,-262.28,170.03)" gradientUnits="userSpaceOnUse"><stop id="stop5059" offset="0" style="stop-color:#ececec"/><stop id="stop5061" offset="1" style="stop-color:#bdbdbd"/></radialGradient><radialGradient id="radialGradient5553" cx="280" cy="121.9" r="171.75" gradientTransform="matrix(1.4207,0.0045726,-4.2194e-4,0.13109,-117.74,177.51)" gradientUnits="userSpaceOnUse"><stop id="stop5176" offset="0" style="stop-color:#784421"/><stop id="stop5178" offset="1" style="stop-color:#502d16"/></radialGradient><filter id="filter5559" width="1.117" height="1.646" x="-.059" y="-.323" style="color-interpolation-filters:sRGB"><feGaussianBlur id="feGaussianBlur5561" stdDeviation="4.932"/></filter></defs><g id="layer1" transform="translate(-89.759,-421.77)"><g id="g879"><g id="g3889" transform="matrix(0.82763,0,0,0.72394,62.351,220.6)"><ellipse style="fill:url(#radialGradient3769);filter:url(#filter3885)" id="path3819" cx="379.322" cy="826.183" rx="319.635" ry="84.817" transform="matrix(0.9312,0,0,1.037,21.384,-41.594)"/><ellipse style="fill:url(#radialGradient3769)" id="path3767" cx="379.322" cy="826.183" rx="319.635" ry="84.817" transform="matrix(0.9312,0,0,1.037,21.384,-41.594)"/><ellipse style="fill:#f2f2f2" id="path3763" cx="379.322" cy="826.183" rx="319.635" ry="84.817" transform="translate(-6.2828,-21.99)"/><ellipse style="fill:url(#radialGradient3761)" id="path2985" cx="379.322" cy="826.183" rx="319.635" ry="84.817" transform="translate(-4.7121,-28.272)"/><ellipse style="fill:#979797;fill-opacity:.39153;stroke:#b7b7b7;stroke-width:8.47819996" id="path3781" cx="379.322" cy="826.183" rx="319.635" ry="84.817" transform="matrix(0.67076,0,0,0.51852,123.32,374.23)"/></g><ellipse style="opacity:.76549;fill:#000;filter:url(#filter5559)" id="path5557" cx="375.398" cy="810.797" rx="101.069" ry="18.326" transform="matrix(1.1279,0,0,1,-49.117,-5.5532)"/><g id="g5534" transform="translate(95.516,346.52)"><path style="color:#000;text-indent:0;text-transform:none;fill:url(#linearGradient5547)" id="path5195" d="m 439.17,257.67 c -25.438,43.93 -39.387,89.35 -47.403,133.12 44.248,-4.7547 95.39,-22.438 132.79,-58.967 18.907,-18.622 29.484,-45.42 18.197,-61.228 -15.04,-22.507 -51.273,-23.332 -83.898,-17.355 -6.5259,1.2098 -13.099,2.7142 -19.685,4.4346 z m 15.941,21.332 c 23.79,-4.055 50.966,-4.9496 62.368,11.379 5.0006,12.809 -9.9013,29.252 -23.86,38.755 -20.119,15.125 -43.273,24.474 -65.505,30.12 -2.8005,-9.9757 5.7448,-22.515 7.5174,-33.583 5.1304,-15.574 11.687,-31.204 19.48,-46.67 z"/><path style="fill:url(#radialGradient5549)" id="path3789" d="m 80.393,195.9 c 0,0 -0.39267,276.47 199.61,276.47 200.00267,0 199.61,-277.25 199.61,-277.25 0,0 0.39267,37.251 -199.61,37.251 -200.00267,0 -199.61,-36.466 -199.61,-36.466 z"/><path style="fill:navy" id="path5312" d="m 82.394,226.53 c 6.6019,8.6957 38.99,30.031 198.17,30.031 159.22,0 191.58,-21.34 198.17,-30.031 -12.31,9.0501 -54.344,24.5 -198.17,24.5 -143.8,0 -185.85,-15.449 -198.17,-24.5 z"/><path style="fill:#e6e6e6" id="path3799" d="m 80,197.36 c 0,0 0,-35 200,-35 200,0 200,35 200,35 0,0 0,35 -200,35 -200,0 -200,-35 -200,-35 z"/><path style="fill:url(#radialGradient5551);stroke:#d6d6d6;stroke-width:.95049" id="path5055" d="m 85.603,197.36 c 0,0 0,-30.905 194.4,-30.905 194.4,0 194.4,30.905 194.4,30.905 0,0 0,30.905 -194.4,30.905 -194.4,0 -194.4,-30.905 -194.4,-30.905 z"/><path style="fill:url(#radialGradient5553)" id="path5133" d="m 280,183.25 c -171.74,0 -171.75,28.458 -171.75,28.458 0,0 -3.1197,-2.691 3.4524,1.0026 25.74,7.2057 77.281,15.571 168.3,15.571 91.017,0 144.13,-7.9724 169.87,-15.178 6.5721,-3.6936 2.667,-1.3953 2.667,-1.3953 0,0 -0.79105,-28.458 -172.54,-28.458 z"/><path style="fill:navy" id="path5315" d="m 95.984,303.08 c 6.1383,9.0173 36.252,31.142 184.25,31.142 148.04,0 178.13,-22.129 184.25,-31.142 -11.446,9.3848 -50.528,25.406 -184.25,25.406 -133.7,0 -172.8,-16.02 -184.25,-25.406 z"/><path style="fill:navy" id="path5317" d="m 81.098,218.32 c 6.6266,8.6924 39.135,30.02 198.91,30.02 159.82,0 192.29,-21.332 198.91,-30.02 -12.356,9.0466 -54.547,24.491 -198.91,24.491 -144.33,0 -186.54,-15.443 -198.91,-24.491 z"/><path style="opacity:.75;fill:#e6e6e6" id="path5319" d="m 102.99,222.45 c 3.9285,56.925 -4.9115,78.268 32.841,131.88 16.542,22.012 46.792,63.312 46.792,63.312 -21.238,-29.599 -34.238,-72.456 -39.419,-109.19 -1.9791,-20.594 -1.0488,-46.93 -3.4225,-76.2 -17.664,-4.7084 -24.543,-4.722 -36.791,-9.8007 z"/><ellipse style="opacity:.70800003;fill:#e6e6e6;filter:url(#filter5436)" id="path5366" cx="300.394" cy="179.059" rx="78.142" ry="38.482" transform="translate(-19.959,-11.566)"/><path style="opacity:.5;fill:#e9c6af;filter:url(#filter5530)" id="path5504" d="m 242.12,217.16 40.764,-28.929 24.764,-28.825 c 3.9909,-10.14 5.5983,-21.21 4.6561,-32.066 -0.97687,-11.256 -4.6964,-22.265 -10.747,-31.807 -4.1829,-4.7891 -7.8969,-9.9877 -11.071,-15.497 -2.354,-4.0854 -4.4218,-8.3675 -5.6969,-12.907 -1.275,-4.5394 -1.7375,-9.3584 -0.8775,-13.994 0.89846,-4.843 3.2451,-9.3931 6.5915,-13.008 3.3464,-3.6144 7.6742,-6.2924 12.37,-7.7785 8.8982,-2.8158 19.094,-1.1507 26.634,4.3499 l 34.784,23.86 -26.42,-30.901 -19.571,-13.45 -28.653,0.64575 -24.714,24.584 -1.751,24.736 6.7041,32.146 22.213,34.43 -7.0266,23.206 -15.12,21.217 -29.427,39.856 1.5945,0.13101" transform="matrix(0.52176,-0.064767,0.069939,0.46757,123.87,114.8)"/></g></g></g><metadata id="metadata52"/></svg>